# xmcd
#
# Track frame offsets: 
#        150
#        14353
#        38353
#        58312
#        66928
#        82975
#        112586
#        122257
#        138309
#        156090
#        196126
#
# Disc length: 2864 seconds
#
# Revision: 1
# Processed by: cddbd v1.5.2PL0 Copyright (c) Steve Scherf et al.
# Submitted via: ExactAudioCopy v0.95b4
#
DISCID=7f0b2e0b
DTITLE=Groundtruther - Latitude
DYEAR=2004
DGENRE=Jazz
TTITLE0=North Pole
TTITLE1=Arctic Circle
TTITLE2=40th Parallel
TTITLE3=Horse Latitudes North
TTITLE4=Tropic of Cancer
TTITLE5=Equator
TTITLE6=Tropic of Capricorn
TTITLE7=Horse Latitudes South
TTITLE8=Tropic of Calms
TTITLE9=Antarctic Circle
TTITLE10=South Pole
EXTD=YEAR: 2004
EXTT0=
EXTT1=
EXTT2=
EXTT3=
EXTT4=
EXTT5=
EXTT6=
EXTT7=
EXTT8=
EXTT9=
EXTT10=
PLAYORDER=
